<svg width="500" height="349" viewBox="0 0 500 349" fill="none" xmlns="http://www.w3.org/2000/svg">
<g clip-path="url(#clip0)">
<path fill-rule="evenodd" clip-rule="evenodd" d="M241 348H65V147.15L0 147.32C29.1 135.93 61.29 120.58 89.6 97.67C115.9 78.01 137.6 58.92 153.8 28.26L240.95 27.76C198.67 53.24 164.54 89.29 148.31 137.52C136.92 171.37 136.67 221.34 150.77 256.46C166.08 294.54 205.51 328.06 205.51 328.06C205.51 328.06 226.23 345.2 241 348Z" fill="#EA2626"/>
<path fill-rule="evenodd" clip-rule="evenodd" d="M453 79.59C422.619 50.0537 381.917 33.5295 339.545 33.5295C297.173 33.5295 256.471 50.0537 226.09 79.59C211.228 94.0485 199.413 111.337 191.341 130.435C183.269 149.534 179.103 170.056 179.09 190.79C179.11 277.63 251 348 339.56 348C381.943 348.14 422.684 331.62 453 302C467.875 287.553 479.7 270.269 487.775 251.17C495.85 232.071 500.01 211.546 500.01 190.81C500.01 170.074 495.85 149.549 487.775 130.45C479.7 111.351 467.875 94.0668 453 79.62V79.59ZM406.2 255.36C388.4 272.778 364.464 282.497 339.56 282.42C287.5 282.42 245.3 241.06 245.3 190.04C245.306 177.861 247.752 165.808 252.494 154.59C257.236 143.373 264.178 133.22 272.91 124.73C290.755 107.378 314.664 97.6705 339.555 97.6705C364.446 97.6705 388.355 107.378 406.2 124.73C414.934 133.218 421.877 143.372 426.618 154.591C431.359 165.81 433.802 177.866 433.802 190.045C433.802 202.224 431.359 214.28 426.618 225.499C421.877 236.718 414.934 246.872 406.2 255.36V255.36Z" fill="#EA2626"/>
<path d="M484.58 67C481.7 68.36 444.81 72 407.35 57.47C366 41.53 344.3 11.48 336.81 0C359.26 0.51 375.58 4.27 387.66 9.46L388.72 9.93C389.12 10.11 389.5 10.28 389.91 10.48L390.09 10.57C398.517 14.3585 406.037 19.902 412.15 26.83C413.668 28.5808 415.093 30.4099 416.42 32.31C416.88 32.95 417.33 33.58 417.77 34.21C421.16 39.14 424.18 44.03 428.96 48.81C429.12 48.99 429.3 49.17 429.47 49.33C430.989 50.8578 432.609 52.2811 434.32 53.59C437.032 55.6694 439.939 57.4812 443 59C443.36 59.2 443.73 59.4 444.12 59.57C458.27 66.66 484.59 67.05 484.58 67Z" fill="#5FAF6C"/>
<path d="M484.57 67C484.3 67.22 483.95 67.48 483.57 67.79C457.23 87.02 426.81 86.37 424.16 86.27C418.4 86.06 380.84 83.92 355.62 52.13C344.67 38.41 341.15 19.24 336.81 0C344.3 11.48 366.12 41.53 407.44 57.51C444.89 72 481.69 68.4 484.57 67Z" fill="#86E298"/>
</g>
<defs>
<clipPath id="clip0">
<rect width="500" height="348.03" fill="white"/>
</clipPath>
</defs>
</svg>
